<svg version="1.1" id="Layer_1" xmlns="http://www.w3.org/2000/svg" xmlns:xlink="http://www.w3.org/1999/xlink" x="0px" y="0px"
	 width="100%" viewBox="0 0 500 500" enable-background="new 0 0 500 500" xml:space="preserve">
<path fill="#000000" opacity="1.000000" stroke="none" 
	d="
M326.000000,501.000000 
	C217.333359,501.000000 109.166718,501.000000 1.000058,501.000000 
	C1.000039,334.333405 1.000039,167.666794 1.000019,1.000148 
	C167.666565,1.000098 334.333130,1.000098 500.999756,1.000049 
	C500.999847,167.666519 500.999847,334.333038 500.999939,500.999786 
	C442.833344,501.000000 384.666656,501.000000 326.000000,501.000000 
M315.014832,383.229279 
	C314.330658,381.057037 312.825348,378.762451 313.127167,376.737183 
	C313.832031,372.007629 314.682556,367.047516 316.782349,362.832550 
	C320.703369,354.961823 325.750732,347.661682 329.974731,339.930359 
	C337.459290,326.231110 343.594360,311.817749 353.541534,299.456421 
	C355.959900,296.451141 357.201447,291.122070 353.516235,286.896118 
	C342.898743,274.720642 332.378265,262.460327 321.722992,250.318161 
	C315.639404,243.385635 309.367188,236.618652 303.044434,229.627319 
	C303.341431,228.880310 304.177887,226.811890 304.987610,224.733078 
	C307.156189,219.165939 309.229370,213.559814 311.502472,208.035843 
	C313.210541,203.884949 315.103668,199.805817 317.040314,195.754929 
	C318.297516,193.125320 319.294495,189.983627 321.398102,188.333481 
	C322.262817,187.655151 325.750641,190.255157 327.998413,191.452057 
	C328.556732,191.749374 328.855927,192.513062 329.404022,192.852982 
	C335.896423,196.879318 342.290222,201.092407 348.991547,204.738831 
	C351.304962,205.997665 354.197418,205.248108 355.334564,202.109406 
	C357.244904,196.836487 359.578461,191.653275 360.846466,186.225021 
	C363.216370,176.079544 364.744781,165.739456 367.025024,155.570389 
	C368.426636,149.319763 370.608948,143.246246 372.355103,137.069016 
	C372.697449,135.857834 373.103088,134.362778 372.698395,133.294586 
	C370.972260,128.738007 364.024780,124.841675 358.839325,124.976288 
	C356.107147,125.047211 354.938660,126.053177 354.985046,128.852905 
	C355.087616,135.041183 354.981628,141.232635 355.008484,147.422592 
	C355.015839,149.117126 355.649353,150.938736 355.217163,152.484375 
	C352.383850,162.616852 349.337036,172.689621 346.359955,182.781876 
	C345.695374,182.910339 345.030823,183.038803 344.366241,183.167267 
	C338.232574,174.085281 332.086304,165.011780 325.969574,155.918411 
	C321.760834,149.661560 317.168732,144.216049 308.656952,143.836273 
	C307.056335,143.764847 305.127625,141.206985 304.204773,139.367752 
	C303.623322,138.208893 304.814697,136.261246 304.889862,134.652451 
	C305.082062,130.538071 305.528992,128.931046 310.453674,131.453140 
	C317.013092,134.812424 320.870850,132.082657 320.997681,125.850578 
	C321.014771,125.010490 321.629852,123.935928 322.307953,123.400337 
	C324.725647,121.490814 327.290070,119.767044 329.072449,118.492470 
	C328.638336,114.991333 326.988312,111.246277 328.112701,108.751816 
	C330.418732,103.635895 328.581482,91.235832 324.146881,87.911858 
	C317.309570,82.786911 309.614441,81.064621 301.250977,80.956932 
	C295.545074,80.883469 291.902313,83.626472 290.094971,88.571861 
	C288.033966,94.211105 286.722443,100.119957 284.879364,105.845352 
	C284.182434,108.010277 283.057678,110.080124 281.863068,112.031113 
	C280.454346,114.331825 278.826965,116.218964 281.289886,119.054535 
	C282.746735,120.731819 283.235474,123.249992 284.293823,125.701050 
	C280.823273,126.171745 277.625153,127.541519 275.068298,126.774261 
	C267.810791,124.596474 261.266724,127.087296 255.158600,129.688416 
	C241.486633,135.510574 228.180710,142.204453 214.832596,148.760910 
	C212.960449,149.680481 210.624817,151.662186 210.353775,153.435089 
	C209.707825,157.660080 209.243134,162.307327 210.344757,166.335678 
	C214.774170,182.532440 221.717712,198.017792 223.233093,215.064575 
	C223.479614,217.837601 226.671021,221.775253 229.289810,222.567291 
	C232.962036,223.677917 237.386246,222.453232 241.458450,221.971146 
	C242.340515,221.866730 243.325134,220.820358 243.867981,219.959152 
	C246.857315,215.216644 243.058395,211.965424 240.927292,208.607254 
	C237.610107,203.380066 232.834061,198.890594 230.397263,193.333771 
	C225.951996,183.196838 226.685715,172.111526 227.074844,161.262909 
	C227.113632,160.181778 227.999542,158.553802 228.899918,158.190903 
	C231.430817,157.170807 234.184860,156.715439 236.832565,155.972015 
	C243.853577,154.000656 250.968155,152.290192 257.840027,149.888046 
	C261.737946,148.525482 263.396179,149.380981 264.050293,153.246262 
	C265.683105,162.894409 266.526581,172.788254 269.325165,182.090622 
	C271.470947,189.223297 271.198975,195.802933 268.661865,202.138458 
	C266.634155,207.201874 263.036102,211.700729 259.768951,216.183304 
	C257.107178,219.835251 253.335449,222.754089 251.051941,226.590790 
	C245.407181,236.075104 245.501022,246.862259 244.843170,257.490875 
	C244.662598,260.408112 243.170868,263.569672 241.417465,265.994934 
	C237.977417,270.753174 233.207825,274.649048 230.273102,279.654938 
	C221.999756,293.767090 211.325897,305.116882 197.219604,313.633575 
	C191.003235,317.386719 185.385040,322.638000 180.619202,328.176300 
	C171.803146,338.421234 163.943710,349.484406 155.353516,359.933533 
	C153.932159,361.662445 150.822784,362.808990 148.493149,362.809570 
	C144.311951,362.810577 140.137100,361.688049 135.946976,361.129822 
	C132.822876,360.713654 131.056870,362.438385 131.102234,365.336731 
	C131.187149,370.763000 131.807861,376.179291 131.970078,381.606781 
	C132.037399,383.858795 131.635941,386.155396 131.203751,388.384399 
	C130.617981,391.405426 129.159409,394.394562 129.222778,397.372955 
	C129.326447,402.244171 130.255615,407.111603 131.028137,411.950073 
	C131.568649,415.335541 133.670120,416.924103 137.217590,417.032806 
	C141.048782,417.150238 140.821732,414.774048 141.020187,412.129272 
	C141.526520,405.381317 143.260040,399.476929 150.079300,395.896759 
	C156.353745,392.602631 158.737595,386.538696 156.589340,382.114349 
	C160.519272,377.448730 164.115143,372.472198 168.427582,368.222931 
	C175.192444,361.557129 182.097992,354.941406 189.578568,349.119904 
	C197.469910,342.978668 205.986832,337.605469 214.462830,332.265564 
	C219.111176,329.337097 224.901169,327.958099 229.017761,324.500854 
	C238.730255,316.343933 247.400406,306.941864 257.149475,298.833740 
	C266.223206,291.287231 275.983978,284.593597 282.141052,274.355072 
	C285.130707,275.964539 287.929230,277.564514 290.808228,279.003357 
	C299.130310,283.162567 307.611420,287.022949 315.788330,291.447479 
	C322.913727,295.303040 324.722595,298.790924 322.334900,303.206207 
	C316.889709,313.275330 311.434998,323.280334 308.776825,334.578857 
	C307.153168,341.480133 304.412354,348.150452 303.183838,355.103058 
	C302.148315,360.963165 298.718719,365.962646 292.968170,367.632446 
	C290.061890,368.476349 287.145813,369.588348 284.538635,371.103119 
	C277.072083,375.441132 277.146423,375.537170 282.209930,382.725250 
	C282.653107,383.354370 282.613342,384.330414 283.070099,384.942047 
	C285.131470,387.702423 287.299500,390.382874 289.410919,393.106262 
	C290.309814,394.265747 291.316315,395.376587 292.013855,396.651794 
	C296.597504,405.031677 301.279907,413.354095 309.313812,419.019318 
	C314.091888,422.388580 315.464142,421.996216 318.916473,416.984741 
	C318.366638,415.865448 318.000122,414.520752 317.185089,413.554382 
	C310.459595,405.580292 311.642944,397.006989 314.956543,388.153015 
	C315.408051,386.946564 315.027557,385.428711 315.014832,383.229279 
z"/>
<path fill="#DD447C" opacity="1.000000" stroke="none" 
	d="
M315.023560,383.642151 
	C315.027557,385.428711 315.408051,386.946564 314.956543,388.153015 
	C311.642944,397.006989 310.459595,405.580292 317.185089,413.554382 
	C318.000122,414.520752 318.366638,415.865448 318.916473,416.984741 
	C315.464142,421.996216 314.091888,422.388580 309.313812,419.019318 
	C301.279907,413.354095 296.597504,405.031677 292.013855,396.651794 
	C291.316315,395.376587 290.309814,394.265747 289.410919,393.106262 
	C287.299500,390.382874 285.131470,387.702423 283.070099,384.942047 
	C282.613342,384.330414 282.653107,383.354370 282.209930,382.725250 
	C277.146423,375.537170 277.072083,375.441132 284.538635,371.103119 
	C287.145813,369.588348 290.061890,368.476349 292.968170,367.632446 
	C298.718719,365.962646 302.148315,360.963165 303.183838,355.103058 
	C304.412354,348.150452 307.153168,341.480133 308.776825,334.578857 
	C311.434998,323.280334 316.889709,313.275330 322.334900,303.206207 
	C324.722595,298.790924 322.913727,295.303040 315.788330,291.447479 
	C307.611420,287.022949 299.130310,283.162567 290.808228,279.003357 
	C287.929230,277.564514 285.130707,275.964539 282.141052,274.355072 
	C275.983978,284.593597 266.223206,291.287231 257.149475,298.833740 
	C247.400406,306.941864 238.730255,316.343933 229.017761,324.500854 
	C224.901169,327.958099 219.111176,329.337097 214.462830,332.265564 
	C205.986832,337.605469 197.469910,342.978668 189.578568,349.119904 
	C182.097992,354.941406 175.192444,361.557129 168.427582,368.222931 
	C164.115143,372.472198 160.519272,377.448730 156.589340,382.114349 
	C158.737595,386.538696 156.353745,392.602631 150.079300,395.896759 
	C143.260040,399.476929 141.526520,405.381317 141.020187,412.129272 
	C140.821732,414.774048 141.048782,417.150238 137.217590,417.032806 
	C133.670120,416.924103 131.568649,415.335541 131.028137,411.950073 
	C130.255615,407.111603 129.326447,402.244171 129.222778,397.372955 
	C129.159409,394.394562 130.617981,391.405426 131.203751,388.384399 
	C131.635941,386.155396 132.037399,383.858795 131.970078,381.606781 
	C131.807861,376.179291 131.187149,370.763000 131.102234,365.336731 
	C131.056870,362.438385 132.822876,360.713654 135.946976,361.129822 
	C140.137100,361.688049 144.311951,362.810577 148.493149,362.809570 
	C150.822784,362.808990 153.932159,361.662445 155.353516,359.933533 
	C163.943710,349.484406 171.803146,338.421234 180.619202,328.176300 
	C185.385040,322.638000 191.003235,317.386719 197.219604,313.633575 
	C211.325897,305.116882 221.999756,293.767090 230.273102,279.654938 
	C233.207825,274.649048 237.977417,270.753174 241.417465,265.994934 
	C243.170868,263.569672 244.662598,260.408112 244.843170,257.490875 
	C245.501022,246.862259 245.407181,236.075104 251.051941,226.590790 
	C253.335449,222.754089 257.107178,219.835251 259.768951,216.183304 
	C263.036102,211.700729 266.634155,207.201874 268.661865,202.138458 
	C271.198975,195.802933 271.470947,189.223297 269.325165,182.090622 
	C266.526581,172.788254 265.683105,162.894409 264.050293,153.246262 
	C263.396179,149.380981 261.737946,148.525482 257.840027,149.888046 
	C250.968155,152.290192 243.853577,154.000656 236.832565,155.972015 
	C234.184860,156.715439 231.430817,157.170807 228.899918,158.190903 
	C227.999542,158.553802 227.113632,160.181778 227.074844,161.262909 
	C226.685715,172.111526 225.951996,183.196838 230.397263,193.333771 
	C232.834061,198.890594 237.610107,203.380066 240.927292,208.607254 
	C243.058395,211.965424 246.857315,215.216644 243.867981,219.959152 
	C243.325134,220.820358 242.340515,221.866730 241.458450,221.971146 
	C237.386246,222.453232 232.962036,223.677917 229.289810,222.567291 
	C226.671021,221.775253 223.479614,217.837601 223.233093,215.064575 
	C221.717712,198.017792 214.774170,182.532440 210.344757,166.335678 
	C209.243134,162.307327 209.707825,157.660080 210.353775,153.435089 
	C210.624817,151.662186 212.960449,149.680481 214.832596,148.760910 
	C228.180710,142.204453 241.486633,135.510574 255.158600,129.688416 
	C261.266724,127.087296 267.810791,124.596474 275.068298,126.774261 
	C277.625153,127.541519 280.823273,126.171745 284.293823,125.701050 
	C283.235474,123.249992 282.746735,120.731819 281.289886,119.054535 
	C278.826965,116.218964 280.454346,114.331825 281.863068,112.031113 
	C283.057678,110.080124 284.182434,108.010277 284.879364,105.845352 
	C286.722443,100.119957 288.033966,94.211105 290.094971,88.571861 
	C291.902313,83.626472 295.545074,80.883469 301.250977,80.956932 
	C309.614441,81.064621 317.309570,82.786911 324.146881,87.911858 
	C328.581482,91.235832 330.418732,103.635895 328.112701,108.751816 
	C326.988312,111.246277 328.638336,114.991333 329.072449,118.492470 
	C327.290070,119.767044 324.725647,121.490814 322.307953,123.400337 
	C321.629852,123.935928 321.014771,125.010490 320.997681,125.850578 
	C320.870850,132.082657 317.013092,134.812424 310.453674,131.453140 
	C305.528992,128.931046 305.082062,130.538071 304.889862,134.652451 
	C304.814697,136.261246 303.623322,138.208893 304.204773,139.367752 
	C305.127625,141.206985 307.056335,143.764847 308.656952,143.836273 
	C317.168732,144.216049 321.760834,149.661560 325.969574,155.918411 
	C332.086304,165.011780 338.232574,174.085281 344.366241,183.167267 
	C345.030823,183.038803 345.695374,182.910339 346.359955,182.781876 
	C349.337036,172.689621 352.383850,162.616852 355.217163,152.484375 
	C355.649353,150.938736 355.015839,149.117126 355.008484,147.422592 
	C354.981628,141.232635 355.087616,135.041183 354.985046,128.852905 
	C354.938660,126.053177 356.107147,125.047211 358.839325,124.976288 
	C364.024780,124.841675 370.972260,128.738007 372.698395,133.294586 
	C373.103088,134.362778 372.697449,135.857834 372.355103,137.069016 
	C370.608948,143.246246 368.426636,149.319763 367.025024,155.570389 
	C364.744781,165.739456 363.216370,176.079544 360.846466,186.225021 
	C359.578461,191.653275 357.244904,196.836487 355.334564,202.109406 
	C354.197418,205.248108 351.304962,205.997665 348.991547,204.738831 
	C342.290222,201.092407 335.896423,196.879318 329.404022,192.852982 
	C328.855927,192.513062 328.556732,191.749374 327.998413,191.452057 
	C325.750641,190.255157 322.262817,187.655151 321.398102,188.333481 
	C319.294495,189.983627 318.297516,193.125320 317.040314,195.754929 
	C315.103668,199.805817 313.210541,203.884949 311.502472,208.035843 
	C309.229370,213.559814 307.156189,219.165939 304.987610,224.733078 
	C304.177887,226.811890 303.341431,228.880310 303.044434,229.627319 
	C309.367188,236.618652 315.639404,243.385635 321.722992,250.318161 
	C332.378265,262.460327 342.898743,274.720642 353.516235,286.896118 
	C357.201447,291.122070 355.959900,296.451141 353.541534,299.456421 
	C343.594360,311.817749 337.459290,326.231110 329.974731,339.930359 
	C325.750732,347.661682 320.703369,354.961823 316.782349,362.832550 
	C314.682556,367.047516 313.832031,372.007629 313.127167,376.737183 
	C312.825348,378.762451 314.330658,381.057037 315.023560,383.642151 
z"/>
</svg>